# xmcd
#
# Track frame offsets:
#	151
#	18842
#	33967
#	50220
#	64879
#	83698
#	98365
#	114192
#	130097
#	147070
#	162495
#	181338
#	197447
#
# Disc length: 2838 seconds
#
# Revision: 1
# Processed by: cddbd v1.4PL0 Copyright (c) Steve Scherf et al.
# Submitted via: audiograbber 1.80.04
#
DISCID=9e0b140d
DTITLE=Batom na cueca - Vai começar
DYEAR=1999
DGENRE=Samba
TTITLE0=Vai começar...
TTITLE1=Ela viu
TTITLE2=Beijo molhado
TTITLE3=Tremendo Mané
TTITLE4=Chamego de amor
TTITLE5=Chico
TTITLE6=Cuidado com o batom
TTITLE7=O samba é pra te distrair
TTITLE8=Mary
TTITLE9=Com ela ninguém pode
TTITLE10=Gabriel
TTITLE11=Vontade louca
TTITLE12=Não tenho hora
EXTD=
EXTT0=
EXTT1=
EXTT2=
EXTT3=
EXTT4=
EXTT5=
EXTT6=
EXTT7=
EXTT8=
EXTT9=
EXTT10=
EXTT11=
EXTT12=
PLAYORDER=
